<?xml version="1.0" encoding="utf-8"?>
<!-- Generator: Adobe Illustrator 16.0.2, SVG Export Plug-In . SVG Version: 6.00 Build 0)  -->
<!DOCTYPE svg PUBLIC "-//W3C//DTD SVG 1.1//EN" "http://www.w3.org/Graphics/SVG/1.1/DTD/svg11.dtd">
<svg version="1.1" id="Layer_1" xmlns="http://www.w3.org/2000/svg" xmlns:xlink="http://www.w3.org/1999/xlink" x="0px" y="0px"
	 width="128px" height="128px" viewBox="0 0 128 128" enable-background="new 0 0 128 128" xml:space="preserve">
<g>
	<g>
		<path fill="#34343D" d="M64.107,37.546c-14.611,0-26.457,11.846-26.457,26.459c0,14.608,11.846,26.451,26.457,26.451
			c14.61,0,26.452-11.843,26.452-26.451C90.559,49.392,78.717,37.546,64.107,37.546z M64.123,77.95
			c-7.726,0-13.989-6.265-13.989-13.988c0-7.726,6.263-13.989,13.989-13.989c7.725,0,13.993,6.263,13.993,13.989
			C78.115,71.688,71.848,77.95,64.123,77.95z M123.764,62.093c-1.97-2.551-27.617-36.25-59.657-36.25
			c-32.04,0-58.63,34.699-58.63,34.699l-1.312,1.789c0,0-1.312,1.55,0,3.219l1.312,1.669c0,0,26.754,34.938,58.63,34.938
			c31.874,0,58.346-34.938,58.346-34.938l1.311-1.789C123.764,65.43,125.236,64,123.764,62.093z M64.105,93.811
			c-16.465,0-29.81-13.347-29.81-29.811S47.64,34.189,64.106,34.189c16.464,0,29.812,13.347,29.812,29.811
			C93.917,80.464,80.568,93.811,64.105,93.811z"/>
	</g>
</g>
<rect x="57.768" y="5.186" transform="matrix(0.6725 0.7401 -0.7401 0.6725 68.7005 -25.756)" display="none" fill="#9F9FFF" width="11.367" height="119.123"/>
<rect x="59.771" y="4.438" transform="matrix(0.6725 0.7401 -0.7401 0.6725 68.3262 -26.4059)" fill="#33333D" width="8.458" height="119.123"/>
</svg>
